<svg width="7" height="9" viewBox="0 0 7 9" fill="none" xmlns="http://www.w3.org/2000/svg">
<path d="M4.73738 1.49497C4.21457 1.49497 3.7839 1.63765 3.44537 1.92297C3.10683 2.20429 2.88828 2.6142 2.78972 3.15271H5.38018V4.21366H2.6933L2.68045 4.42465V4.70797L2.6933 4.90689H4.97521V5.97989H2.80258C3.02112 6.95645 3.7089 7.44473 4.86594 7.44473C5.47873 7.44473 6.06795 7.33019 6.63361 7.10113V8.64433C6.13651 8.88145 5.50873 9 4.75024 9C3.70034 9 2.83685 8.73275 2.15978 8.19827C1.48271 7.66377 1.05632 6.92431 0.880633 5.97992H0V4.90689H0.758497C0.741351 4.81448 0.732785 4.68988 0.732785 4.53316L0.745637 4.21366H0V3.15271H0.854914C1.01346 2.18018 1.43985 1.4126 2.13406 0.849975C2.82828 0.283335 3.69604 1.5e-05 4.73737 0C5.54299 1.5e-05 6.2972 0.164775 7 0.494317L6.37006 1.89284C6.07437 1.76826 5.79798 1.67181 5.54086 1.60348C5.28374 1.53115 5.01592 1.49498 4.73738 1.49497Z" fill="currentColor"/>
</svg>
