<svg width="8" height="10" viewBox="0 0 8 10" fill="none" xmlns="http://www.w3.org/2000/svg">
<path d="M4.98667 6.17143C6.76 6.17143 8 4.89733 8 3.06581C8 1.23429 6.76 0 4.98667 0H1.58333C1.44527 0 1.33333 0.115136 1.33333 0.257143V4.68497H0.25C0.111938 4.68497 0 4.80011 0 4.94211V5.91429C0 6.05629 0.111938 6.17143 0.25 6.17143H1.33333V6.85714H0.25C0.111938 6.85714 0 6.97228 0 7.11429V7.97143C0 8.11344 0.111938 8.22857 0.25 8.22857H1.33333V9.34286C1.33333 9.48486 1.44527 9.6 1.58333 9.6H2.80333C2.9414 9.6 3.05333 9.48486 3.05333 9.34286V8.22857H6.41667C6.55473 8.22857 6.66667 8.11344 6.66667 7.97143V7.11429C6.66667 6.97228 6.55473 6.85714 6.41667 6.85714H3.05333V6.17143H4.98667ZM3.05333 1.47317H4.69333C5.66667 1.47317 6.25333 2.09696 6.25333 3.06581C6.25333 4.04792 5.66667 4.68497 4.66667 4.68497H3.05333V1.47317Z" fill="currentColor"/>
</svg>
