<svg width="23" height="21" viewBox="0 0 23 21" fill="none" xmlns="http://www.w3.org/2000/svg">
<path d="M23 8.6005V9.23757C23 9.76535 22.5709 10.1932 22.0417 10.1932H21.7222L20.6795 17.4713C20.5446 18.4128 19.736 19.1122 18.7821 19.1122H4.21786C3.26404 19.1122 2.45537 18.4128 2.32044 17.4713L1.27778 10.1932H0.958333C0.429054 10.1932 0 9.76535 0 9.23757V8.6005C0 8.07272 0.429054 7.64489 0.958333 7.64489H3.6473L7.91108 1.7989C8.32616 1.22983 9.12525 1.10397 9.69602 1.51787C10.2667 1.93177 10.3929 2.72863 9.97785 3.29773L6.80724 7.64489H16.1928L13.0222 3.29769C12.6071 2.72863 12.7333 1.93173 13.304 1.51783C13.8747 1.10393 14.6739 1.22975 15.089 1.79886L19.3527 7.64489H22.0417C22.5709 7.64489 23 8.07272 23 8.6005ZM12.4583 15.6083V11.1488C12.4583 10.621 12.0293 10.1932 11.5 10.1932C10.9707 10.1932 10.5417 10.621 10.5417 11.1488V15.6083C10.5417 16.1361 10.9707 16.5639 11.5 16.5639C12.0293 16.5639 12.4583 16.1361 12.4583 15.6083ZM16.9306 15.6083V11.1488C16.9306 10.621 16.5015 10.1932 15.9722 10.1932C15.4429 10.1932 15.0139 10.621 15.0139 11.1488V15.6083C15.0139 16.1361 15.4429 16.5639 15.9722 16.5639C16.5015 16.5639 16.9306 16.1361 16.9306 15.6083ZM7.98611 15.6083V11.1488C7.98611 10.621 7.55706 10.1932 7.02778 10.1932C6.4985 10.1932 6.06944 10.621 6.06944 11.1488V15.6083C6.06944 16.1361 6.4985 16.5639 7.02778 16.5639C7.55706 16.5639 7.98611 16.1361 7.98611 15.6083Z" fill="white"/>
</svg>
