<svg width="19" height="19" viewBox="0 0 19 19" fill="none" xmlns="http://www.w3.org/2000/svg">
<path d="M13.4375 13.4375L17.375 17.375" stroke="#AAAAAA" stroke-width="1.5" stroke-linecap="round" stroke-linejoin="round"/>
<path d="M1.625 8.375C1.625 9.26142 1.79959 10.1392 2.13881 10.9581C2.47803 11.7771 2.97523 12.5212 3.60203 13.148C4.22882 13.7748 4.97294 14.272 5.79189 14.6112C6.61083 14.9504 7.48858 15.125 8.375 15.125C9.26142 15.125 10.1392 14.9504 10.9581 14.6112C11.7771 14.272 12.5212 13.7748 13.148 13.148C13.7748 12.5212 14.272 11.7771 14.6112 10.9581C14.9504 10.1392 15.125 9.26142 15.125 8.375C15.125 6.58479 14.4138 4.8679 13.148 3.60203C11.8821 2.33616 10.1652 1.625 8.375 1.625C6.58479 1.625 4.8679 2.33616 3.60203 3.60203C2.33616 4.8679 1.625 6.58479 1.625 8.375V8.375Z" stroke="#AAAAAA" stroke-width="1.5" stroke-linecap="round" stroke-linejoin="round"/>
</svg>
