<svg width="16" height="15" viewBox="0 0 16 15" fill="none" xmlns="http://www.w3.org/2000/svg">
<path d="M6.68301 8.55404L1.72001 5.86291C1.50553 5.74659 1.33365 5.6032 1.21588 5.44237C1.09812 5.28153 1.0372 5.10695 1.0372 4.93033C1.0372 4.75372 1.09812 4.57914 1.21588 4.4183C1.33365 4.25746 1.50553 4.11408 1.72001 3.99776L6.68301 1.30663C7.0476 1.10895 7.51557 0.999999 8.00001 0.999999C8.48446 0.999999 8.95243 1.10895 9.31701 1.30663L14.28 3.99776C14.4945 4.11408 14.6664 4.25746 14.7841 4.4183C14.9019 4.57914 14.9628 4.75372 14.9628 4.93033C14.9628 5.10695 14.9019 5.28153 14.7841 5.44237C14.6664 5.60321 14.4945 5.74659 14.28 5.86291L9.31701 8.55404C8.95243 8.75171 8.48446 8.86067 8.00001 8.86067C7.51557 8.86067 7.0476 8.75171 6.68301 8.55404V8.55404Z" stroke="white" stroke-width="1.5" stroke-linecap="round" stroke-linejoin="round"/>
<path d="M0.999998 8.02865L6.698 11.055C7.06054 11.2477 7.52239 11.3536 8 11.3536C8.47761 11.3536 8.93945 11.2477 9.302 11.055L15 8.02866" stroke="white" stroke-width="1.5" stroke-linecap="round" stroke-linejoin="round"/>
<path d="M1 10.5072L6.698 13.5336C7.06054 13.7262 7.52239 13.8321 8 13.8321C8.47761 13.8321 8.93946 13.7262 9.302 13.5336L15 10.5072" stroke="white" stroke-width="1.5" stroke-linecap="round" stroke-linejoin="round"/>
</svg>
