<svg width="18" height="21" viewBox="0 0 18 21" fill="none" xmlns="http://www.w3.org/2000/svg">
<path d="M8.8125 21C9.48028 21 10.1207 20.7347 10.5929 20.2625C11.0651 19.7903 11.3304 19.1499 11.3304 18.4821H6.29464C6.29464 19.1499 6.55992 19.7903 7.03211 20.2625C7.5043 20.7347 8.14472 21 8.8125 21ZM10.0651 2.2407C10.0827 2.06566 10.0634 1.88887 10.0084 1.72174C9.95349 1.55461 9.86412 1.40086 9.74609 1.2704C9.62807 1.13993 9.48401 1.03565 9.32321 0.964283C9.16241 0.892914 8.98843 0.856041 8.8125 0.856041C8.63657 0.856041 8.4626 0.892914 8.30179 0.964283C8.14099 1.03565 7.99693 1.13993 7.87891 1.2704C7.76088 1.40086 7.67151 1.55461 7.61656 1.72174C7.56161 1.88887 7.54229 2.06566 7.55987 2.2407C6.13692 2.53013 4.85773 3.30244 3.93889 4.42684C3.02005 5.55124 2.51804 6.95863 2.51786 8.41071C2.51786 9.79302 1.88839 15.9643 0 17.2232H17.625C15.7366 15.9643 15.1071 9.79302 15.1071 8.41071C15.1071 5.36411 12.9418 2.82107 10.0651 2.2407Z" fill="white"/>
</svg>
