<svg width="7" height="11" viewBox="0 0 7 11" fill="none" xmlns="http://www.w3.org/2000/svg">
<path d="M3.11111 11V10.1058C1.17955 9.9933 0.00607639 8.98808 0 7.46429H1.75C1.79302 8.11103 2.32993 8.6048 3.11111 8.69196V6.28571L2.46045 6.11384C0.977812 5.76567 0.184479 4.90114 0.184479 3.60741C0.184479 2.08239 1.26583 1.08232 3.11111 0.933036V0H3.88889V0.933036C5.7699 1.08772 6.78125 2.10522 6.80556 3.53571H5.05556C5.03708 2.94496 4.6708 2.47033 3.88889 2.40625V4.66518L4.63799 4.84393C6.21274 5.1921 7 6.01562 7 7.36607C7 8.94585 5.93688 9.9658 3.88889 10.0994V11H3.11111ZM3.11111 4.51786V2.40625C2.44052 2.44357 1.96219 2.85975 1.96219 3.45051C1.96219 3.99806 2.36056 4.35605 3.11111 4.51786ZM3.88889 6.43304V8.69196C4.81615 8.65415 5.25924 8.22741 5.25924 7.56815C5.25924 6.96462 4.81615 6.55826 3.88889 6.43304Z" fill="currentColor"/>
</svg>
