<svg width="14" height="14" viewBox="0 0 14 14" fill="none" xmlns="http://www.w3.org/2000/svg">
<path d="M4.08242 0C1.8315 0 0 1.83258 0 4.08406V9.91703C0 12.1682 1.83258 14 4.08406 14H9.91703C12.1682 14 14 12.1674 14 9.91594V4.08242C14 1.8315 12.1674 0 9.91594 0H4.08242ZM11.2 2.24C11.5091 2.24 11.76 2.49088 11.76 2.8C11.76 3.10912 11.5091 3.36 11.2 3.36C10.8909 3.36 10.64 3.10912 10.64 2.8C10.64 2.49088 10.8909 2.24 11.2 2.24ZM7 3.36C9.0076 3.36 10.64 4.9924 10.64 7C10.64 9.0076 9.00732 10.64 7 10.64C4.9924 10.64 3.36 9.00732 3.36 7C3.36 4.99268 4.9924 3.36 7 3.36ZM7 4.48C5.60812 4.48 4.48 5.60812 4.48 7C4.48 8.39188 5.60812 9.52 7 9.52C8.39188 9.52 9.52 8.39188 9.52 7C9.52 5.60812 8.39188 4.48 7 4.48Z" fill="white"/>
</svg>
