<?xml version="1.0" encoding="utf-8"?><svg viewBox="0 0 23 21" xmlns="http://www.w3.org/2000/svg" xmlns:xlink="http://www.w3.org/1999/xlink"><style>:root>svg{display:none}:root>svg:target{display:block}</style><svg fill="none" viewBox="0 0 23 21" id="icon-basket" xmlns="http://www.w3.org/2000/svg"><path d="M23 8.6v.638c0 .527-.43.955-.958.955h-.32l-1.043 7.278a1.915 1.915 0 01-1.897 1.641H4.218c-.954 0-1.763-.7-1.898-1.64l-1.042-7.279h-.32A.957.957 0 010 9.238V8.6c0-.528.43-.956.958-.956h2.69L7.91 1.799a1.28 1.28 0 011.785-.281c.57.414.697 1.21.282 1.78l-3.17 4.347h9.385l-3.17-4.347a1.272 1.272 0 01.281-1.78 1.28 1.28 0 011.785.28l4.264 5.847h2.689c.529 0 .958.428.958.956zm-10.542 7.008v-4.46a.957.957 0 00-.958-.955.957.957 0 00-.958.956v4.46c0 .527.429.955.958.955.53 0 .958-.428.958-.956zm4.473 0v-4.46a.957.957 0 00-.959-.955.957.957 0 00-.958.956v4.46c0 .527.429.955.958.955.53 0 .959-.428.959-.956zm-8.945 0v-4.46a.957.957 0 00-.958-.955.957.957 0 00-.959.956v4.46c0 .527.43.955.959.955.53 0 .958-.428.958-.956z" fill="#fff"/></svg><svg fill="none" viewBox="0 0 8 6" id="icon-caret" xmlns="http://www.w3.org/2000/svg"><path d="M4 6L.536 0h6.928L4 6z" fill="#FEFFFF"/></svg><svg fill="none" viewBox="0 0 14 14" id="icon-facebook" xmlns="http://www.w3.org/2000/svg"><g clip-path="url(#cclip0_31_2)"><path d="M10.258 7.875l.389-2.534H8.215V3.697c0-.693.34-1.369 1.429-1.369h1.105V.171S9.746.001 8.787.001c-2.002 0-3.31 1.213-3.31 3.41v1.93H3.25v2.534h2.226V14h2.738V7.875h2.043z" fill="#fff"/></g><defs><clipPath id="cclip0_31_2"><path fill="#fff" d="M0 0h14v14H0z"/></clipPath></defs></svg><svg fill="none" viewBox="0 0 16 15" id="icon-filter" xmlns="http://www.w3.org/2000/svg"><path d="M6.683 8.554L1.72 5.863a1.509 1.509 0 01-.504-.42.863.863 0 01-.179-.513c0-.176.061-.35.179-.512.118-.16.29-.304.504-.42l4.963-2.691C7.048 1.109 7.516 1 8 1s.952.109 1.317.307l4.963 2.69c.215.117.386.26.504.421.118.161.179.336.179.512 0 .177-.061.352-.179.512-.118.161-.29.305-.504.42L9.317 8.555c-.365.198-.833.307-1.317.307s-.952-.11-1.317-.307v0z" stroke="#fff" stroke-width="1.5" stroke-linecap="round" stroke-linejoin="round"/><path d="M1 8.029l5.698 3.026c.363.193.824.299 1.302.299.478 0 .94-.106 1.302-.299L15 8.029" stroke="#fff" stroke-width="1.5" stroke-linecap="round" stroke-linejoin="round"/><path d="M1 10.507l5.698 3.027c.363.192.824.298 1.302.298.478 0 .94-.106 1.302-.298L15 10.507" stroke="#fff" stroke-width="1.5" stroke-linecap="round" stroke-linejoin="round"/></svg><svg fill="none" viewBox="0 0 14 14" id="icon-instagram" xmlns="http://www.w3.org/2000/svg"><path d="M4.082 0A4.088 4.088 0 000 4.084v5.833A4.089 4.089 0 004.084 14h5.833A4.089 4.089 0 0014 9.916V4.082A4.088 4.088 0 009.916 0H4.082zM11.2 2.24a.56.56 0 110 1.12.56.56 0 010-1.12zM7 3.36A3.643 3.643 0 0110.64 7 3.644 3.644 0 017 10.64 3.644 3.644 0 013.36 7 3.644 3.644 0 017 3.36zm0 1.12a2.52 2.52 0 100 5.04 2.52 2.52 0 000-5.04z" fill="#fff"/></svg><svg fill="none" viewBox="0 0 18 21" id="icon-notification" xmlns="http://www.w3.org/2000/svg"><path d="M8.813 21a2.518 2.518 0 002.517-2.518H6.295A2.518 2.518 0 008.813 21zm1.252-18.76a1.258 1.258 0 00-2.448-.518 1.259 1.259 0 00-.057.519 6.297 6.297 0 00-5.042 6.17c0 1.382-.63 7.553-2.518 8.812h17.625c-1.888-1.259-2.518-7.43-2.518-8.812a6.297 6.297 0 00-5.042-6.17z" fill="#fff"/></svg><svg fill="none" viewBox="0 0 19 19" id="icon-search" xmlns="http://www.w3.org/2000/svg"><path d="M13.438 13.438l3.937 3.937M1.625 8.375a6.75 6.75 0 1013.5 0 6.75 6.75 0 00-13.5 0v0z" stroke="#AAA" stroke-width="1.5" stroke-linecap="round" stroke-linejoin="round"/></svg><svg fill="none" viewBox="0 0 7 9" id="icon-sign-eur" xmlns="http://www.w3.org/2000/svg"><path d="M4.737 1.495c-.522 0-.953.143-1.292.428-.338.281-.557.691-.655 1.23h2.59v1.06H2.693l-.013.212v.283l.013.199h2.282V5.98H2.803c.218.976.906 1.465 2.063 1.465.613 0 1.202-.115 1.768-.344v1.543C6.137 8.881 5.509 9 4.75 9c-1.05 0-1.913-.267-2.59-.802C1.483 7.664 1.056 6.924.88 5.98H0V4.907h.758a2.143 2.143 0 01-.025-.374l.013-.32H0v-1.06h.855c.158-.973.585-1.74 1.28-2.303C2.827.283 3.695 0 4.736 0 5.543 0 6.297.165 7 .494l-.63 1.399a6.357 6.357 0 00-.83-.29 2.953 2.953 0 00-.803-.108z" fill="currentColor"/></svg><svg fill="none" viewBox="0 0 8 10" id="icon-sign-rub" xmlns="http://www.w3.org/2000/svg"><path d="M4.987 6.171C6.76 6.171 8 4.897 8 3.066 8 1.234 6.76 0 4.987 0H1.583a.254.254 0 00-.25.257v4.428H.25a.254.254 0 00-.25.257v.972c0 .142.112.257.25.257h1.083v.686H.25a.254.254 0 00-.25.257v.857c0 .142.112.258.25.258h1.083v1.114c0 .142.112.257.25.257h1.22c.138 0 .25-.115.25-.257V8.229h3.364c.138 0 .25-.116.25-.258v-.857a.254.254 0 00-.25-.257H3.053v-.686h1.934zM3.053 1.473h1.64c.974 0 1.56.624 1.56 1.593 0 .982-.586 1.619-1.586 1.619H3.053V1.473z" fill="currentColor"/></svg><svg fill="none" viewBox="0 0 7 11" id="icon-sign-usd" xmlns="http://www.w3.org/2000/svg"><path d="M3.111 11v-.894C1.18 9.993.006 8.988 0 7.464h1.75c.043.647.58 1.14 1.361 1.228V6.286l-.65-.172C.977 5.766.183 4.9.183 3.607c0-1.525 1.082-2.525 2.927-2.674V0h.778v.933c1.88.155 2.892 1.172 2.917 2.603h-1.75c-.019-.591-.385-1.066-1.167-1.13v2.26l.749.178C6.213 5.192 7 6.016 7 7.366c0 1.58-1.063 2.6-3.111 2.733V11H3.11zm0-6.482V2.406c-.67.038-1.149.454-1.149 1.045 0 .547.399.905 1.15 1.067zm.778 1.915v2.259c.927-.038 1.37-.465 1.37-1.124 0-.603-.443-1.01-1.37-1.135z" fill="currentColor"/></svg><svg fill="none" viewBox="0 0 18 14" id="icon-twitter" xmlns="http://www.w3.org/2000/svg"><path d="M17.221 1.66c-.633.281-1.313.47-2.028.557A3.543 3.543 0 0016.746.26a7.054 7.054 0 01-2.243.857 3.535 3.535 0 00-6.021 3.224A10.034 10.034 0 011.199.65a3.532 3.532 0 00-.06 3.444c.273.513.67.95 1.154 1.273a3.525 3.525 0 01-1.6-.442v.046a3.534 3.534 0 002.834 3.464c-.52.141-1.066.162-1.596.06a3.535 3.535 0 003.3 2.454A7.09 7.09 0 010 12.412 9.993 9.993 0 005.415 14c6.5 0 10.054-5.384 10.054-10.053 0-.151-.004-.304-.01-.456a7.182 7.182 0 001.761-1.828l.002-.002z" fill="#fff"/></svg></svg>